<?xml version="1.0" standalone="no"?>
<!DOCTYPE svg PUBLIC "-//W3C//DTD SVG 1.1//EN"
"http://www.w3.org/Graphics/SVG/1.1/DTD/svg11.dtd">
<!-- Creator: fig2dev Version 3.2 Patchlevel 5 -->
<!-- CreationDate: Sun May 27 22:05:56 2007 -->
<!-- Magnification: 1.050 -->
<svg xmlns="http://www.w3.org/2000/svg" width="3.1in" height="2.8in" viewBox="2197 2433 3731 3345">
<g style="stroke-width:.025in; stroke:black; fill:none">
<!-- Circle -->
<circle cx="4157" cy="4299" r="106"
 style="fill:#00b000;stroke:#00b000;stroke-width:16;"/>
<!-- Circle -->
<circle cx="4157" cy="4299" r="1464"
 style="stroke-dasharray:62 62;stroke:#000000;stroke-width:16;"/>
<!-- Circle -->
<circle cx="4157" cy="4299" r="835"
 style="stroke:#000000;stroke-width:16;"/>
<!-- Line: box -->
<rect x="2220" y="4251" width="188" height="188" rx="0" 
style="stroke:#0000d1;stroke-width:16;
stroke-linejoin:miter; stroke-linecap:butt;
fill:#0000d1;
"/>
<!-- Line: box -->
<rect x="2220" y="3779" width="188" height="188" rx="0" 
style="stroke:#0000d1;stroke-width:16;
stroke-linejoin:miter; stroke-linecap:butt;
fill:#0000d1;
"/>
<!-- Line: box -->
<rect x="2267" y="2787" width="188" height="188" rx="0" 
style="stroke:#0000d1;stroke-width:16;
stroke-linejoin:miter; stroke-linecap:butt;
fill:#0000d1;
"/>
<!-- Line: box -->
<rect x="2834" y="3779" width="188" height="188" rx="0" 
style="stroke:#0000d1;stroke-width:16;
stroke-linejoin:miter; stroke-linecap:butt;
fill:#0000d1;
"/>
<!-- Line: box -->
<rect x="4204" y="3070" width="188" height="188" rx="0" 
style="stroke:#0000d1;stroke-width:16;
stroke-linejoin:miter; stroke-linecap:butt;
fill:#0000d1;
"/>
<!-- Line -->
<polygon points="4677,4157
4488,4157
4582,3968
4677,4157
" style="stroke:#ff0000;stroke-width:16;
stroke-linejoin:miter; stroke-linecap:butt;
fill:#ff0000;
"/>
<!-- Line -->
<polygon points="4866,2645
4677,2645
4771,2456
4866,2645
" style="stroke:#ff0000;stroke-width:16;
stroke-linejoin:miter; stroke-linecap:butt;
fill:#ff0000;
"/>
<!-- Line -->
<polygon points="5905,2976
5716,2976
5811,2787
5905,2976
" style="stroke:#ff0000;stroke-width:16;
stroke-linejoin:miter; stroke-linecap:butt;
fill:#ff0000;
"/>
<!-- Line -->
<polygon points="3779,2740
3590,2740
3685,2551
3779,2740
" style="stroke:#ff0000;stroke-width:16;
stroke-linejoin:miter; stroke-linecap:butt;
fill:#ff0000;
"/>
<!-- Line: box -->
<rect x="3401" y="4251" width="188" height="188" rx="0" 
style="stroke:#0000d1;stroke-width:16;
stroke-linejoin:miter; stroke-linecap:butt;
fill:#0000d1;
"/>
<!-- Line -->
<polygon points="4440,4535
4251,4535
4346,4346
4440,4535
" style="stroke:#ff0000;stroke-width:16;
stroke-linejoin:miter; stroke-linecap:butt;
fill:#ff0000;
"/>
<!-- Text -->
<text xml:space="preserve" x="4067" y="4110" stroke="#008f00" fill="#008f00"  font-family="Times" font-style="normal" font-weight="normal" font-size="252" text-anchor="start">?</text>
</g>
</svg>
